<?xml version="1.0" encoding="UTF-8"?>
<!DOCTYPE svg  PUBLIC '-//W3C//DTD SVG 1.1//EN'  'http://www.w3.org/Graphics/SVG/1.1/DTD/svg11.dtd'>
<svg clip-rule="evenodd" stroke-linecap="round" stroke-linejoin="round" stroke-miterlimit="10" version="1.1" viewBox="0 0 1024 1024" xml:space="preserve" xmlns="http://www.w3.org/2000/svg">

<g fill="none" stroke="#242628" stroke-width="32">
<path d="m88.203 511.93c0-234.09 189.77-423.86 423.86-423.86 234.09 0 423.86 189.77 423.86 423.86 0 234.09-189.77 423.86-423.86 423.86-234.09 0-423.86-189.77-423.86-423.86z" stroke-linecap="butt" stroke-linejoin="round"/>
<path d="m23.691 511.83c0-269.59 218.55-488.14 488.14-488.14s488.14 218.55 488.14 488.14-218.55 488.14-488.14 488.14-488.14-218.55-488.14-488.14z" stroke-linecap="butt" stroke-linejoin="round"/>
<path d="m324.39 964.97 25.449-61.44" stroke-linecap="butt" stroke-linejoin="round"/>
<path d="m698.95 963.29-24.71-59.654 24.71 59.654z" stroke-linecap="butt" stroke-linejoin="miter"/>
<path d="m674.28 120.26 24.607-59.407" stroke-linecap="butt" stroke-linejoin="round"/>
<path d="m903.77 349.74 60.023-24.862" stroke-linecap="butt" stroke-linejoin="round"/>
<path d="m124.71 351.58-63.039-26.111" stroke-linecap="butt" stroke-linejoin="round"/>
<path d="m961.53 698.2-57.841-23.959 57.841 23.959z" stroke-linecap="butt" stroke-linejoin="round"/>
<path d="m62.302 698.28 60.888-25.221" stroke-linecap="butt" stroke-linejoin="round"/>
<g stroke-linecap="round" stroke-linejoin="round">
<path d="m690.33 699.71c5.967 41.919 12.815 80.757 41.911 105.47 3.201 4.796-19.445 11.258-27.106-1.024-3.657-5.869-27.593-39.735-14.805-104.44z"/>
<path d="m785.97 651.4c-38.444 0-76.718 35.791-83.508 29.364s46.805-51.384 46.805-89.659c0-12.809-13.112-23.19-34.309-23.19-13.537 0-18.686 3.624-24.509 3.624-5.818 5e-3 -10.968-3.619-24.504-3.619-13.537 0-34.309 7.512-34.309 25.598 0 42.883 51.636 78.223 46.805 87.251s-44.358-27.048-84.182-27.048c-13.277 0-30.986 7.107-25.12 31.306 3.026 12.485 8.616 15.48 9.805 20.869 1.194 5.393-2.193 16.479 0.578 29.014 2.772 12.535 13.781 29.329 36.794 24.899 36.151-6.955 60.384-60.097 74.016-60.097 20.411 0 44.422 41.544 77.552 52.265 15.288 4.947 30.731-4.526 33.497-17.062 2.771-12.54-0.611-21.305 0.578-26.698s6.572-9.038 9.343-21.578c2.766-12.536 0.17-35.239-25.332-35.239z"/>
</g>
<g stroke-linecap="round" stroke-linejoin="miter">
<path d="m285.22 267.86c-103.01 75.027-68.436 144.96-61.891 159.66 2.33 5.218-12.974 13.502-4.831 23.445 7.935 9.689 20.22-2.924 28.637-0.613 28.637 7.798 100.02 20.14 172.39-61.979"/>
<path d="m435.73 388.06c55.669-52.246-20.061-115.82-20.061-115.82s-72.663-69.23-127.81-18.145c0 0-17.005 14.049 57.67 81.715 74.676 67.671 90.199 52.251 90.199 52.251z"/>
<path d="m447.97 218.24c-1.872-3.88-6.825-7.766-14.211-5.467-5.325 1.659-10.217 8.567-4.398 14.807 4.66 5.013 19.433 29.21-12.29 44.48l3.025 3.681c39.067-16.138 30.863-51.3 27.874-57.501z"/>
</g>
<path d="m393.65 567.91c-32.369 0-59.354 43.23-59.354 43.23s-26.924-43.23-59.269-43.23c-36.755 0-62.522 28.072-62.522 72.261 0 73.998 77.75 110.85 121.46 170.82h0.707c43.736-59.968 121.49-96.819 121.49-170.82 0-44.189-25.791-72.261-62.51-72.261z" stroke-linecap="round" stroke-linejoin="round"/>
<path d="m464.02 512.01c0-26.509 21.49-48 48-48s48 21.491 48 48c0 26.51-21.49 48-48 48s-48-21.49-48-48z" stroke-linecap="butt" stroke-linejoin="miter"/>
<path d="m349.79 120.36-25.255-60.972" stroke-linecap="butt" stroke-linejoin="round"/>
<path d="m544.07 480.01 171.46-171.46" stroke-linecap="butt" stroke-linejoin="miter"/>
<path d="m751.59 324.61 36.737-88.692" stroke-linecap="round" stroke-linejoin="miter"/>
<path d="m715.54 308.55-15.903-35.896" stroke-linecap="round" stroke-linejoin="miter"/>
<path d="m715.54 308.55 36.052 16.059" stroke-linecap="round" stroke-linejoin="miter"/>
<path d="m699.63 272.65 88.692-36.737" stroke-linecap="round" stroke-linejoin="miter"/>
</g>
</svg>
