<?xml version="1.0" encoding="UTF-8" standalone="no"?>
<!-- Created with Vectornator (http://vectornator.io/) -->

<svg
   height="100%"
   stroke-miterlimit="10"
   style="fill-rule:nonzero;clip-rule:evenodd;stroke-linecap:round;stroke-linejoin:round;"
   version="1.1"
   viewBox="0 0 1024 1024"
   width="100%"
   xml:space="preserve"
   id="svg308"
   sodipodi:docname="fluky-v2.svg"
   inkscape:version="1.2.2 (b0a84865, 2022-12-01)"
   xmlns:inkscape="http://www.inkscape.org/namespaces/inkscape"
   xmlns:sodipodi="http://sodipodi.sourceforge.net/DTD/sodipodi-0.dtd"
   xmlns="http://www.w3.org/2000/svg"
   xmlns:svg="http://www.w3.org/2000/svg"><sodipodi:namedview
   id="namedview310"
   pagecolor="#505050"
   bordercolor="#eeeeee"
   borderopacity="1"
   inkscape:showpageshadow="0"
   inkscape:pageopacity="0"
   inkscape:pagecheckerboard="0"
   inkscape:deskcolor="#505050"
   showgrid="false"
   showguides="false"
   inkscape:zoom="0.65186406"
   inkscape:cx="447.17912"
   inkscape:cy="420.33303"
   inkscape:window-width="1470"
   inkscape:window-height="920"
   inkscape:window-x="0"
   inkscape:window-y="36"
   inkscape:window-maximized="0"
   inkscape:current-layer="layer1" />
<defs
   id="defs245" />

<g
   id="g1621"
   inkscape:label="SectorsOutlineShadow"
   style="fill-rule:nonzero;clip-rule:evenodd;stroke-linecap:round;stroke-linejoin:round;stroke:#f9f9f9;stroke-opacity:1">

<path
   d="m 212.016,395.919 c 0,-167.894 136.106,-303.9997 304,-303.9997 167.895,0 304,136.1057 304,303.9997 0,167.895 -136.105,304 -304,304 -167.894,0 -304,-136.105 -304,-304 z"
   fill="none"
   opacity="1"
   stroke="#242628"
   stroke-linecap="butt"
   stroke-linejoin="round"
   stroke-width="8"
   id="path1601"
   style="stroke:#f9f9f9;stroke-opacity:1" />
<path
   d="M 148,396.084 C 148,192.843 312.759,28.0843 516,28.0843 c 203.241,0 368,164.7587 368,367.9997 0,203.241 -164.759,368 -368,368 -203.241,0 -368,-164.759 -368,-368 z"
   fill="none"
   opacity="1"
   stroke="#242628"
   stroke-linecap="butt"
   stroke-linejoin="round"
   stroke-width="8"
   id="path1603"
   style="stroke:#f9f9f9;stroke-opacity:1" />
<path
   d="m 375.379,735.447 24.493,-59.132"
   fill="none"
   opacity="1"
   stroke="#242628"
   stroke-linecap="butt"
   stroke-linejoin="round"
   stroke-width="8"
   id="path1605"
   style="stroke:#f9f9f9;stroke-opacity:1" />
<path
   d="M 656.877,735.989 632.386,676.86 Z"
   fill="none"
   opacity="1"
   stroke="#242628"
   stroke-linecap="butt"
   stroke-linejoin="round"
   stroke-width="8"
   id="path1607"
   style="stroke:#f9f9f9;stroke-opacity:1" />
<path
   d="M 632.345,115.077 656.836,55.9491"
   fill="none"
   opacity="1"
   stroke="#242628"
   stroke-linecap="butt"
   stroke-linejoin="round"
   stroke-width="8"
   id="path1609"
   style="stroke:#f9f9f9;stroke-opacity:1" />
<path
   d="m 796.563,279.713 59.128,-24.492"
   fill="none"
   opacity="1"
   stroke="#242628"
   stroke-linecap="butt"
   stroke-linejoin="round"
   stroke-width="8"
   id="path1611"
   style="stroke:#f9f9f9;stroke-opacity:1" />
<path
   d="M 235.224,279.611 176.095,255.12"
   fill="none"
   opacity="1"
   stroke="#242628"
   stroke-linecap="butt"
   stroke-linejoin="round"
   stroke-width="8"
   id="path1613"
   style="stroke:#f9f9f9;stroke-opacity:1" />
<path
   d="M 855.901,536.704 796.773,512.212 Z"
   fill="none"
   opacity="1"
   stroke="#242628"
   stroke-linecap="butt"
   stroke-linejoin="round"
   stroke-width="8"
   id="path1615"
   style="stroke:#f9f9f9;stroke-opacity:1" />


<path
   d="M 400.197,113.946 375.589,55.8202"
   fill="none"
   opacity="1"
   stroke="#242628"
   stroke-linecap="butt"
   stroke-linejoin="round"
   stroke-width="8"
   id="path1617"
   style="display:inline;stroke:#f9f9f9;stroke-opacity:1" /><path
   d="M 176.121,536.708 235.25,512.217"
   fill="none"
   opacity="1"
   stroke="#242628"
   stroke-linecap="butt"
   stroke-linejoin="round"
   stroke-width="8"
   id="path1619"
   style="clip-rule:evenodd;fill-rule:nonzero;stroke:#f9f9f9;stroke-linecap:round;stroke-linejoin:round;stroke-opacity:1" />








</g><g
   inkscape:groupmode="layer"
   id="layer1"
   inkscape:label="Sectors"
   style="fill:#8bc34b;fill-rule:nonzero;fill-opacity:1"><path
     id="path3745"
     style="display:inline;fill:#8bc34b;fill-opacity:1;fill-rule:nonzero;stroke-width:0.767031"
     d="m 655.96484,56.595703 c -1.93506,0.216957 -2.92568,2.13612 -3.72857,3.681348 -2.55059,5.197227 -4.63805,10.605591 -6.89194,15.934929 -4.56724,11.064024 -9.12345,22.13286 -13.68808,33.19818 11.31111,5.66963 22.76989,11.07142 33.73633,17.39911 9.69963,5.53938 19.09468,11.61592 28.08984,18.23956 13.1184,9.65477 25.49105,20.59417 36.97806,32.23095 5.53776,5.63172 10.87132,11.46414 15.97311,17.49366 1.41343,1.68394 2.93614,3.52511 4.36719,5.28906 2.59315,3.22897 5.13404,6.48972 7.61832,9.85801 10.95635,14.76598 20.60429,30.70257 28.72659,47.27726 2.46511,5.06213 4.84386,10.16586 7.26837,15.24754 12.39316,-5.22743 24.92076,-10.31479 37.33945,-15.56933 4.56893,-1.98715 9.19899,-3.86975 13.58243,-6.24903 1.09427,-0.60823 2.42157,-1.50906 2.32862,-2.91304 -0.43144,-1.95671 -1.43306,-3.73456 -2.203,-5.57309 -8.87285,-19.37673 -19.26664,-38.07095 -31.28235,-55.67837 C 790.71185,151.93466 761.25339,121.50675 727.55434,96.869778 716.89538,89.095224 705.8652,81.813961 694.41016,75.263672 684.3905,69.66443 674.219,64.327252 663.84964,59.402832 c -2.29168,-1.001841 -4.52822,-2.223504 -6.9805,-2.785644 -0.29934,-0.03683 -0.6041,-0.06181 -0.9043,-0.02148 z" /><path
     id="path3816"
     style="display:inline;fill:#ffa724;fill-opacity:1;fill-rule:nonzero;stroke-width:0.767031"
     d="m 849.38672,255.51172 c -2.22023,0.13876 -4.3037,1.05777 -6.36178,1.83657 -14.62216,6.19168 -29.33647,12.15558 -43.95016,18.38499 -0.64795,0.27778 -1.27534,0.60074 -1.91462,0.89758 -0.0801,1.02131 -0.0369,2.04002 0.33771,3.00582 2.39285,7.7543 5.30511,15.33806 7.59971,23.12437 5.649,18.73349 9.5461,37.99341 11.68257,57.44166 0.56033,5.76866 0.8008,11.66535 0.98547,17.39104 0.26409,9.54443 0.27366,19.09599 0.0137,28.64063 -0.19683,6.06115 -0.43724,12.31341 -1.10535,18.41634 -2.02215,17.33048 -5.22257,34.54813 -10.11282,51.3076 -2.64856,9.23209 -5.8123,18.30483 -8.90232,27.39543 -0.4827,0.99519 -0.63272,2.25739 0.12439,3.16187 1.28489,1.52211 3.23871,2.22538 4.9715,3.1052 7.17387,3.24489 14.50999,6.11827 21.76843,9.16812 7.92361,3.23993 15.7716,6.66596 23.73054,9.81805 0.57375,0.17084 1.22038,0.49929 1.77824,0.47595 0.74809,-0.50135 1.40975,-1.11339 1.72105,-1.98177 2.50674,-5.74925 4.48033,-11.7121 6.52634,-17.63633 7.65259,-22.76564 13.24671,-46.24541 16.27625,-70.07989 3.42106,-26.71833 3.65134,-53.79554 1.43564,-80.62324 -1.75694,-21.04492 -5.47407,-41.91954 -11.04383,-62.28986 -3.06066,-11.30089 -6.73761,-22.42983 -10.77021,-33.41882 -0.87606,-2.19131 -1.59141,-4.47849 -2.80215,-6.51397 -0.39808,-0.69359 -1.2095,-1.03079 -1.98828,-1.02734 z" /><path
     id="path4613"
     style="display:inline;fill:#2094f3;fill-opacity:1;fill-rule:nonzero;stroke-width:0.767031"
     d="m 793.82031,513.21484 c -5.39933,10.61285 -10.54428,21.36723 -16.54621,31.66028 -16.28231,28.26808 -37.0003,54.00834 -61.37886,75.70345 -21.77983,19.43818 -46.41847,35.60664 -72.72496,48.23307 -3.83225,1.86075 -7.66329,3.72401 -11.49645,5.58289 5.76151,14.28574 11.7414,28.48194 17.65341,42.70603 1.37065,3.27698 2.72727,6.56 4.13956,9.81936 0.70214,0.92841 1.95718,1.09306 3.01497,0.75481 3.53152,-1.04244 6.84686,-2.69285 10.19092,-4.21182 17.21699,-8.15834 33.83139,-17.5963 49.65417,-28.20856 18.0614,-12.12869 34.87356,-26.07154 50.40413,-41.29686 16.4193,-16.04328 31.66064,-33.35375 44.80389,-52.19581 12.50327,-17.82911 23.09174,-36.93395 32.44596,-56.58053 1.4604,-3.14326 3.05696,-6.23721 4.27697,-9.48388 0.21873,-0.66668 -0.0874,-1.3285 -0.17969,-1.99219 -7.81108,-3.3837 -15.71352,-6.55204 -23.56854,-9.83311 -9.948,-4.11132 -19.90328,-8.2083 -29.85528,-12.31142 -0.278,0.55143 -0.55599,1.10286 -0.83399,1.65429 z" /><path
     id="path6067"
     style="display:inline;fill:#795649;fill-opacity:1;fill-rule:nonzero;stroke-width:0.767031"
     d="m 397.69727,677.07031 c -0.63818,0.0469 -1.20705,0.1905 -1.3841,0.88272 -1.4508,2.90598 -2.60725,5.95293 -3.90006,8.93231 -5.57588,13.38588 -11.12641,26.78241 -16.45687,40.26826 -0.4973,1.17948 -0.87441,2.39793 -1.08905,3.66085 2.52944,1.56292 5.40978,2.39218 8.16595,3.45487 12.16291,4.40172 24.4621,8.46412 37.00123,11.66214 21.21186,5.44471 42.88892,9.10659 64.72288,10.81583 9.39059,0.5877 18.80606,0.62854 28.21228,0.64786 8.81238,-0.0454 17.63639,-0.0709 26.42926,-0.7126 25.22076,-2.00938 50.27661,-6.38526 74.57417,-13.47694 10.05567,-2.93758 20.00941,-6.24583 29.77048,-10.05152 1.62205,-0.72982 3.55074,-1.32533 4.51047,-2.93729 0.76354,-1.24212 0.11899,-2.66267 -0.38144,-3.86719 -5.67214,-14.07585 -11.52293,-28.07812 -17.40725,-42.06622 -1.01785,-2.28132 -1.86283,-4.64695 -3.05506,-6.84589 -0.77738,-0.34461 -1.60838,-0.52115 -2.44141,-0.26367 -4.60877,1.17665 -8.97797,3.11043 -13.49392,4.58375 -15.5977,5.24638 -31.60809,9.2605 -47.81769,12.09015 -4.71499,0.80201 -9.46622,1.49344 -14.12727,2.05769 -5.62888,0.68625 -11.27151,1.20811 -16.88562,1.57894 -13.91392,0.91887 -28.00236,0.89743 -41.92335,-0.0533 -8.16657,-0.55848 -16.21613,-1.42381 -24.31311,-2.61746 -5.9793,-0.88248 -12.07025,-1.96482 -18.03842,-3.21496 -4.53474,-0.94548 -9.21732,-2.04266 -13.66395,-3.19404 -5.42787,-1.40458 -10.80888,-2.95996 -16.10343,-4.66305 -6.26312,-1.93493 -12.34039,-4.42398 -18.61974,-6.30533 -0.7412,-0.17641 -1.51657,-0.51128 -2.28498,-0.36588 z" /><path
     id="path6864"
     style="display:inline;fill:#546d78;fill-opacity:1;fill-rule:nonzero;stroke-width:0.767031"
     inkscape:label="path6864"
     d="m 227.76953,512.18555 c -15.86285,6.6247 -31.78596,13.10622 -47.56339,19.93246 -1.20535,0.58349 -2.55975,0.99496 -3.60908,1.81185 -0.58465,0.83605 -0.53794,1.88561 -0.19081,2.80842 1.53431,4.22153 3.58061,8.23429 5.50617,12.28632 4.66653,9.48701 9.48383,18.90919 14.76635,28.07061 28.37024,48.05182 67.75582,89.55592 114.28651,120.36246 16.04397,10.60471 32.90686,19.9877 50.45505,27.86471 2.23163,0.91626 4.44739,1.97254 6.82772,2.43543 1.02717,0.15525 2.07017,-0.42594 2.41711,-1.41398 2.90564,-6.37341 5.54487,-12.8656 8.25802,-19.3232 4.50108,-10.82751 8.95843,-21.67372 13.44205,-32.50891 -11.95945,-6.08983 -24.09398,-11.8644 -35.68744,-18.64341 -3.82167,-2.21157 -7.59337,-4.514 -11.2338,-6.84738 -4.98539,-3.19478 -9.86891,-6.55386 -14.6022,-10.03259 -12.07303,-8.90136 -23.45693,-18.72616 -34.17815,-29.21181 -8.30839,-8.18459 -16.13638,-16.85526 -23.43903,-25.94841 -1.19202,-1.49534 -2.5081,-3.15596 -3.71964,-4.73676 -13.17322,-17.07058 -24.47117,-35.56874 -33.81192,-54.99844 -2.06263,-4.20924 -4.12256,-8.41981 -6.18719,-12.62808 -0.57878,0.24024 -1.15755,0.48047 -1.73633,0.72071 z" /><path
     id="path7661"
     style="display:inline;fill:#ef5552;fill-opacity:1;fill-rule:nonzero;stroke-width:0.767031"
     d="m 174.17383,255.5957 c -0.65412,-0.0441 -1.15826,0.17855 -1.44531,0.78711 -1.10034,1.64581 -1.66675,3.58259 -2.42167,5.39975 -3.40266,9.09665 -6.46476,18.32114 -9.25052,27.62425 -5.18516,17.6643 -8.87697,35.74659 -11.39014,53.97811 -0.7906,5.94061 -1.61151,11.88295 -2.11881,17.85575 -0.66701,9.96155 -0.72932,19.95285 -0.73311,29.93354 0.0511,11.30887 0.2241,22.62644 0.98788,33.91203 0.53401,6.86848 1.52676,13.69235 2.5388,20.50373 4.19431,27.04882 11.07646,53.70798 20.84904,79.28498 0.55442,1.23334 0.9044,2.65063 1.86767,3.6328 0.50599,0.22718 0.96685,0.90001 1.53457,0.48804 8.55853,-3.39481 17.04365,-6.9712 25.56012,-10.4713 7.3427,-3.08085 14.74522,-6.03985 21.94759,-9.44205 1.54851,-0.8337 3.33934,-1.50135 4.39615,-2.98088 0.57654,-0.88182 0.31828,-1.93699 -0.0714,-2.83566 -3.37137,-9.8774 -6.91678,-19.7067 -9.65375,-29.78555 -4.40398,-15.82865 -7.48829,-32.02102 -9.26707,-48.3534 -0.23909,-2.29822 -0.48896,-4.78352 -0.68461,-7.15864 -0.42938,-4.98964 -0.72144,-10.0915 -0.90719,-15.15776 -0.20527,-6.11144 -0.24402,-12.41477 -0.08,-18.59934 0.31832,-12.31527 1.38651,-24.79724 3.19617,-37.05579 0.87073,-5.94471 1.92189,-11.84606 3.14163,-17.77261 1.64395,-7.91762 3.6339,-15.97195 5.89527,-23.73285 1.68329,-5.84042 3.61983,-11.78345 5.66121,-17.5851 1.07625,-3.21971 2.3013,-6.4047 3.08763,-9.71057 0.0373,-0.53357 0.0855,-1.26562 -0.25528,-1.67156 -1.59657,-1.25789 -3.59298,-1.83988 -5.40631,-2.70853 -11.63429,-4.95104 -23.38377,-9.6297 -35.15036,-14.25736 -3.67857,-1.38818 -7.31387,-2.91593 -11.07435,-4.07036 -0.25196,-0.0312 -0.49944,-0.10786 -0.7539,-0.0508 z" /><path
     id="path9259"
     style="fill:#ab47bd;fill-opacity:1;fill-rule:nonzero;stroke-width:0.767031"
     d="m 368.46094,56.761719 c -1.98227,0.123383 -3.76755,1.141176 -5.57364,1.882519 -7.44506,3.474345 -14.80053,7.14513 -22.05387,11.004719 -31.53364,16.827613 -60.69791,38.142143 -86.05311,63.351613 -22.487,22.32658 -41.98538,47.63766 -58.00688,74.97013 -5.67517,10.11031 -10.98982,20.42118 -16.11278,30.82141 -1.19951,2.5544 -2.52791,5.06398 -3.45754,7.73328 -0.48033,1.46443 0.64424,2.80819 1.82227,3.53516 3.45193,2.16296 7.2496,3.69296 10.95077,5.36838 12.79565,5.54451 25.72084,10.7821 38.59415,16.14334 0.94968,-0.95888 1.64689,-2.10422 2.22923,-3.31412 4.03259,-7.6838 7.77349,-15.52122 12.02854,-23.08797 7.96071,-14.40523 16.95905,-28.24244 26.99809,-41.28737 0.81425,-1.03132 1.76699,-2.26362 2.63886,-3.36893 14.47484,-18.25839 31.11664,-34.78316 49.40799,-49.21185 10.5993,-8.43698 21.80631,-16.10582 33.49807,-22.94851 7.05636,-4.14435 14.45641,-8.11556 21.81247,-11.89595 3.20176,-1.64372 6.5828,-3.28142 9.80668,-5.01519 1.51346,-0.87456 3.41763,-1.83732 3.7246,-3.74316 0.21014,-1.62087 -0.83385,-3.04101 -1.31197,-4.52419 -6.11822,-14.883429 -12.26967,-29.75431 -18.50986,-44.586736 -0.31613,-1.078666 -1.28466,-1.878955 -2.43207,-1.826575 z" /><path
     id="path9987"
     style="fill:#ffec3d;fill-opacity:1;fill-rule:nonzero;stroke-width:0.767031"
     d="m 506.77148,26.826172 c -10.22354,0.131328 -20.46248,0.335545 -30.64526,1.314908 -25.81271,2.787787 -51.39973,7.975079 -76.11969,15.952561 -6.43725,2.136946 -12.86005,4.322665 -19.25381,6.587437 -1.51147,0.625467 -3.2557,0.98563 -4.42912,2.193253 -0.87164,0.985136 -0.5595,2.37878 -0.0775,3.467466 3.1156,8.060703 6.64007,15.955389 9.97777,23.925793 3.82847,9.015203 7.65498,18.031247 11.48708,27.04491 9.78395,-3.37228 19.5117,-6.93307 29.47661,-9.748137 17.37791,-4.964447 35.18661,-8.397612 53.14574,-10.397186 5.70555,-0.561627 11.54971,-0.798324 17.20577,-0.985536 9.55737,-0.269833 19.1221,-0.272933 28.67969,-0.01172 5.99013,0.191964 12.16908,0.44336 18.20467,1.064773 7.46022,0.847604 14.89471,1.926677 22.28361,3.261399 1.25002,0.23194 2.70455,0.508656 4.0332,0.757812 1.14772,0.23743 2.54811,0.517268 3.79295,0.770999 12.86705,2.679735 25.52112,6.307268 37.9611,10.533795 4.30971,1.40944 8.59618,2.90867 12.97277,4.09838 0.53465,0.0735 1.20312,0.17475 1.68195,0.0138 1.36973,-1.59913 1.95984,-3.67315 2.8508,-5.5455 5.34215,-12.666788 10.41101,-25.445484 15.3459,-38.275741 0.97971,-2.711377 2.12528,-5.375686 2.88086,-8.160156 0.13726,-0.554584 -0.067,-1.111757 -0.10937,-1.667969 -1.80546,-1.276593 -3.9893,-1.826892 -6.01397,-2.655497 -14.13216,-5.198067 -28.50489,-9.771594 -43.14127,-13.328908 -17.33359,-4.247838 -34.96904,-7.25758 -52.72368,-9.05193 -10.44801,-0.888933 -20.94171,-1.096375 -31.42341,-1.168868 -2.68117,-0.02159 -5.36221,2.14e-4 -8.04338,0.0099 z" /></g><g
   id="Layer-1"
   inkscape:label="SectorsOutline"
   style="fill-rule:nonzero;clip-rule:evenodd;stroke-linecap:round;stroke-linejoin:round">

<path
   d="M208.016 391.919C208.016 224.025 344.122 87.9193 512.016 87.9193C679.911 87.9193 816.016 224.025 816.016 391.919C816.016 559.814 679.911 695.919 512.016 695.919C344.122 695.919 208.016 559.814 208.016 391.919Z"
   fill="none"
   opacity="1"
   stroke="#242628"
   stroke-linecap="butt"
   stroke-linejoin="round"
   stroke-width="8"
   id="path259" />
<path
   d="M144 392.084C144 188.843 308.759 24.0843 512 24.0843C715.241 24.0843 880 188.843 880 392.084C880 595.325 715.241 760.084 512 760.084C308.759 760.084 144 595.325 144 392.084Z"
   fill="none"
   opacity="1"
   stroke="#242628"
   stroke-linecap="butt"
   stroke-linejoin="round"
   stroke-width="8"
   id="path261" />
<path
   d="M371.379 731.447L395.872 672.315"
   fill="none"
   opacity="1"
   stroke="#242628"
   stroke-linecap="butt"
   stroke-linejoin="round"
   stroke-width="8"
   id="path263" />
<path
   d="M652.877 731.989L628.386 672.86L652.877 731.989Z"
   fill="none"
   opacity="1"
   stroke="#242628"
   stroke-linecap="butt"
   stroke-linejoin="round"
   stroke-width="8"
   id="path265" />
<path
   d="M628.345 111.077L652.836 51.9491"
   fill="none"
   opacity="1"
   stroke="#242628"
   stroke-linecap="butt"
   stroke-linejoin="round"
   stroke-width="8"
   id="path267" />
<path
   d="M792.563 275.713L851.691 251.221"
   fill="none"
   opacity="1"
   stroke="#242628"
   stroke-linecap="butt"
   stroke-linejoin="round"
   stroke-width="8"
   id="path269" />
<path
   d="M231.224 275.611L172.095 251.12"
   fill="none"
   opacity="1"
   stroke="#242628"
   stroke-linecap="butt"
   stroke-linejoin="round"
   stroke-width="8"
   id="path271" />
<path
   d="M851.901 532.704L792.773 508.212L851.901 532.704Z"
   fill="none"
   opacity="1"
   stroke="#242628"
   stroke-linecap="butt"
   stroke-linejoin="round"
   stroke-width="8"
   id="path273" />


<path
   d="M 396.197,109.946 371.589,51.8202"
   fill="none"
   opacity="1"
   stroke="#242628"
   stroke-linecap="butt"
   stroke-linejoin="round"
   stroke-width="8"
   id="path279"
   style="display:inline" /><path
   d="M172.121 532.708L231.25 508.217"
   fill="none"
   opacity="1"
   stroke="#242628"
   stroke-linecap="butt"
   stroke-linejoin="round"
   stroke-width="8"
   id="path275"
   style="fill-rule:nonzero;clip-rule:evenodd;stroke-linecap:round;stroke-linejoin:round" />








</g><g
   opacity="1"
   id="g683"
   inkscape:label="LabelOutlineShadow"
   style="fill-rule:nonzero;clip-rule:evenodd;stroke-linecap:round;stroke-linejoin:round;fill:#f9f9f9">
<path
   d="m 324,801.956 c 1.195,1.878 2.261,4.395 3.2,7.552 0.939,3.158 1.408,6.443 1.408,9.856 0,6.656 -1.408,11.392 -4.224,14.208 -2.816,2.816 -6.613,4.224 -11.392,4.224 h -53.76 v 28.928 h 56.064 c 1.365,1.878 2.517,4.352 3.456,7.424 0.939,3.072 1.408,6.315 1.408,9.728 0,6.486 -1.408,11.136 -4.224,13.952 -2.816,2.816 -6.613,4.224 -11.392,4.224 h -44.8 v 54.016 c -1.877,0.512 -4.821,1.024 -8.832,1.536 -4.011,0.512 -7.979,0.768 -11.904,0.768 -3.925,0 -7.381,-0.298 -10.368,-0.896 -2.987,-0.597 -5.504,-1.664 -7.552,-3.2 -2.048,-1.536 -3.584,-3.669 -4.608,-6.4 -1.024,-2.73 -1.536,-6.314 -1.536,-10.752 v -111.36 c 0,-7.338 2.133,-13.141 6.4,-17.408 4.267,-4.266 10.069,-6.4 17.408,-6.4 z"
   fill="none"
   opacity="1"
   stroke="#242628"
   stroke-linecap="butt"
   stroke-linejoin="round"
   stroke-width="8"
   id="path673"
   style="fill:none;stroke:#f9f9f9;stroke-width:8.00126;stroke-dasharray:none;stroke-opacity:1" />
<path
   d="m 391.84,956.836 c -1.877,0.342 -4.651,0.811 -8.32,1.408 -3.669,0.598 -7.381,0.896 -11.136,0.896 -3.755,0 -7.125,-0.256 -10.112,-0.768 -2.987,-0.512 -5.504,-1.536 -7.552,-3.072 -2.048,-1.536 -3.627,-3.626 -4.736,-6.272 -1.109,-2.645 -1.664,-6.101 -1.664,-10.368 V 790.18 c 1.877,-0.341 4.651,-0.81 8.32,-1.408 3.669,-0.597 7.381,-0.896 11.136,-0.896 3.755,0 7.125,0.256 10.112,0.768 2.987,0.512 5.504,1.536 7.552,3.072 2.048,1.536 3.627,3.627 4.736,6.272 1.109,2.646 1.664,6.102 1.664,10.368 z"
   fill="none"
   opacity="1"
   stroke="#242628"
   stroke-linecap="butt"
   stroke-linejoin="round"
   stroke-width="8"
   id="path675"
   style="fill:none;stroke:#f9f9f9;stroke-width:8.00126;stroke-dasharray:none;stroke-opacity:1" />
<path
   d="m 419.232,834.468 c 1.707,-0.512 4.395,-1.024 8.064,-1.536 3.669,-0.512 7.467,-0.768 11.392,-0.768 3.755,0 7.125,0.256 10.112,0.768 2.987,0.512 5.504,1.536 7.552,3.072 2.048,1.536 3.627,3.627 4.736,6.272 1.109,2.646 1.664,6.102 1.664,10.368 v 55.04 c 0,6.998 1.707,11.99 5.12,14.976 3.413,2.987 8.363,4.48 14.848,4.48 3.925,0 7.125,-0.341 9.6,-1.024 2.475,-0.682 4.395,-1.365 5.76,-2.048 v -89.6 c 1.707,-0.512 4.395,-1.024 8.064,-1.536 3.669,-0.512 7.467,-0.768 11.392,-0.768 3.755,0 7.125,0.256 10.112,0.768 2.987,0.512 5.504,1.536 7.552,3.072 2.048,1.536 3.627,3.627 4.736,6.272 1.109,2.646 1.664,6.102 1.664,10.368 v 77.824 c 0,8.534 -3.584,14.934 -10.752,19.2 -5.973,3.755 -13.099,6.614 -21.376,8.576 -8.277,1.963 -17.28,2.944 -27.008,2.944 -9.216,0 -17.707,-1.024 -25.472,-3.072 -7.765,-2.048 -14.464,-5.205 -20.096,-9.472 -5.632,-4.266 -9.984,-9.77 -13.056,-16.512 -3.072,-6.741 -4.608,-14.89 -4.608,-24.448 z"
   fill="none"
   opacity="1"
   stroke="#242628"
   stroke-linecap="butt"
   stroke-linejoin="round"
   stroke-width="8"
   id="path677"
   style="fill:none;stroke:#f9f9f9;stroke-width:8.00126;stroke-dasharray:none;stroke-opacity:1" />
<path
   d="m 689.824,934.564 c -0.853,8.022 -3.2,14.166 -7.04,18.432 -3.84,4.267 -9.429,6.4 -16.768,6.4 -5.461,0 -10.325,-1.322 -14.592,-3.968 -4.267,-2.645 -8.875,-7.125 -13.824,-13.44 l -25.344,-31.744 v 46.592 c -1.877,0.342 -4.651,0.811 -8.32,1.408 -3.669,0.598 -7.381,0.896 -11.136,0.896 -3.755,0 -7.125,-0.256 -10.112,-0.768 -2.987,-0.512 -5.504,-1.536 -7.552,-3.072 -2.048,-1.536 -3.627,-3.626 -4.736,-6.272 -1.109,-2.645 -1.664,-6.101 -1.664,-10.368 V 790.436 c 1.877,-0.512 4.651,-1.066 8.32,-1.664 3.669,-0.597 7.381,-0.896 11.136,-0.896 3.755,0 7.125,0.256 10.112,0.768 2.987,0.512 5.504,1.536 7.552,3.072 2.048,1.536 3.627,3.627 4.736,6.272 1.109,2.646 1.664,6.102 1.664,10.368 v 67.584 l 44.032,-45.056 c 8.875,0 16,1.963 21.376,5.888 5.376,3.926 8.064,8.875 8.064,14.848 0,2.56 -0.427,4.907 -1.28,7.04 -0.853,2.134 -2.176,4.31 -3.968,6.528 -1.792,2.219 -4.096,4.566 -6.912,7.04 -2.816,2.475 -6.101,5.334 -9.856,8.576 l -14.848,12.8 z"
   fill="none"
   opacity="1"
   stroke="#242628"
   stroke-linecap="butt"
   stroke-linejoin="round"
   stroke-width="8"
   id="path679"
   style="fill:none;stroke:#f9f9f9;stroke-width:8.00126;stroke-dasharray:none;stroke-opacity:1" />
<path
   d="m 725.408,925.348 c -1.877,-4.266 -3.883,-9.045 -6.016,-14.336 -2.133,-5.29 -4.352,-11.349 -6.656,-18.176 -2.304,-6.826 -4.693,-14.634 -7.168,-23.424 -2.475,-8.789 -5.077,-18.901 -7.808,-30.336 2.389,-2.389 5.589,-4.48 9.6,-6.272 4.011,-1.792 8.405,-2.688 13.184,-2.688 5.973,0 10.923,1.238 14.848,3.712 3.925,2.475 6.827,7.126 8.704,13.952 l 20.224,70.4 h 1.024 c 2.048,-5.802 4.053,-12.117 6.016,-18.944 1.963,-6.826 3.883,-13.866 5.76,-21.12 1.877,-7.253 3.627,-14.506 5.248,-21.76 1.621,-7.253 3.029,-14.378 4.224,-21.376 6.144,-3.242 12.885,-4.864 20.224,-4.864 5.973,0 10.923,1.28 14.848,3.84 3.925,2.56 5.888,6.998 5.888,13.312 0,4.608 -0.597,9.942 -1.792,16 -1.195,6.059 -2.773,12.502 -4.736,19.328 -1.963,6.827 -4.267,13.867 -6.912,21.12 -2.645,7.254 -5.419,14.379 -8.32,21.376 -2.901,6.998 -5.888,13.611 -8.96,19.84 -3.072,6.23 -6.059,11.819 -8.96,16.768 -4.779,8.363 -9.216,15.19 -13.312,20.48 -4.096,5.291 -8.021,9.43 -11.776,12.416 -3.755,2.987 -7.509,5.035 -11.264,6.144 -3.755,1.11 -7.68,1.664 -11.776,1.664 -7.168,0 -12.971,-2.133 -17.408,-6.4 -4.437,-4.266 -7.083,-9.813 -7.936,-16.64 5.461,-4.266 10.923,-9.002 16.384,-14.208 5.461,-5.205 10.411,-10.538 14.848,-16 -2.901,-0.853 -6.016,-2.858 -9.344,-6.016 -3.328,-3.157 -6.955,-9.088 -10.88,-17.792 z"
   fill="none"
   opacity="1"
   stroke="#242628"
   stroke-linecap="butt"
   stroke-linejoin="round"
   stroke-width="8"
   id="path681"
   style="fill:none;stroke:#f9f9f9;stroke-width:8.00126;stroke-dasharray:none;stroke-opacity:1" />
</g><g
   inkscape:groupmode="layer"
   id="layer2"
   inkscape:label="Lable"><path
     id="path10349"
     style="fill:#cbdc38;fill-opacity:1;fill-rule:nonzero;stroke-width:1.08475"
     d="m 272.91211,800.73047 c -11.8595,0.0359 -23.72109,-0.0552 -35.57872,0.19192 -3.59733,0.14915 -7.25515,0.10768 -10.77007,0.98523 -2.24933,0.62685 -4.19339,1.98377 -6.20138,3.12661 -2.22039,1.2996 -3.80292,3.50275 -4.49687,5.96351 -1.2073,4.16104 -1.35258,8.53269 -1.59446,12.83192 -0.4517,11.30615 -0.36358,22.62528 -0.40368,33.93831 0.0221,20.13171 -0.0629,40.26395 0.0929,60.39524 0.12209,7.17828 0.0948,14.37809 0.85353,21.525 0.38538,2.75987 0.74788,5.81284 2.75691,7.92507 1.60179,1.56099 3.84399,2.1529 5.90796,2.84668 2.59705,0.79401 5.29062,1.31152 8.01626,1.24931 5.66207,-0.006 11.33577,-0.24661 16.95664,-0.9495 1.41478,-0.17939 3.0489,-0.48219 3.80664,-1.84961 1.08249,-2.01405 1.00472,-4.38793 1.21289,-6.60547 0.39956,-9.00378 0.37579,-18.02007 0.50691,-27.03052 0.068,-6.31405 0.13602,-12.62809 0.20403,-18.94214 12.56316,-0.29275 25.1305,-0.44936 37.68997,-0.86636 4.53486,-0.2209 9.11791,-0.29346 13.57175,-1.25864 2.39754,-0.51776 4.76241,-1.75835 6.02734,-3.93945 1.57966,-2.3942 1.6554,-5.37952 1.79138,-8.14976 0.10062,-4.62359 -0.35735,-9.3046 -1.85403,-13.70154 -0.3703,-1.23514 -0.74056,-2.4703 -1.11117,-3.70534 -14.2395,-0.0294 -28.47974,0.0712 -42.71867,-0.0798 -4.30005,-0.0937 -8.49066,-0.0994 -12.77224,-0.53626 -0.46524,-0.16784 -1.36801,0.089 -1.47939,-0.49581 -0.41858,-2.23008 -0.51825,-4.50416 -0.64689,-6.76513 -0.0321,-0.87576 -0.0816,-2.03766 -0.10777,-3.02454 -0.12896,-5.96506 -0.10295,-11.94431 0.39292,-17.89342 0.0707,-0.6489 0.16202,-1.61097 0.29527,-2.37662 -0.0685,-0.70588 0.39835,-0.9023 1.02743,-0.86978 4.28108,-0.45056 8.64371,-0.56664 12.87877,-0.72181 14.95759,-0.48329 29.93859,-0.31628 44.87868,-1.27423 1.63614,-0.16772 3.44494,-0.0899 4.78899,-1.20288 2.87122,-2.12711 4.11565,-5.72254 4.7349,-9.1104 0.90771,-5.2634 0.26777,-10.71072 -1.42566,-15.75244 -0.38946,-1.299 -0.77883,-2.59802 -1.16861,-3.89692 -15.35417,0.005 -30.70833,0.0132 -46.0625,0.0195 z" /><path
     id="path10351"
     style="fill:#cbdc38;fill-opacity:1;fill-rule:nonzero;stroke-width:1.08475"
     d="m 362.5918,786.625 c -4.23677,0.11128 -8.51627,0.18772 -12.66004,1.1738 -0.88098,0.17601 -1.76183,0.35271 -2.6427,0.52932 0.0158,40.91184 -0.0369,81.82376 0.0389,122.73554 0.0719,9.07707 0.005,18.16205 0.46942,27.22981 0.23691,2.60537 0.23535,5.4547 1.80804,7.67528 1.57126,2.06661 3.51129,3.96082 5.88476,5.07031 2.38666,0.73741 4.92369,0.74319 7.39645,0.9245 5.43817,0.22666 10.90347,0.33767 16.32905,-0.17077 1.94861,-0.2143 3.801,-0.90511 5.70029,-1.35724 -0.0237,-35.1548 0.0218,-70.3097 -0.064,-105.46441 -0.0626,-13.56624 -0.0536,-27.13658 -0.47713,-40.69733 -0.14949,-3.0334 -0.1544,-6.0992 -0.72845,-9.09022 -0.65843,-2.26451 -2.40952,-4.08081 -4.34319,-5.35315 -3.98175,-2.50573 -8.81785,-3.03813 -13.41928,-3.19668 -1.09752,-0.0258 -2.19456,-0.0228 -3.29221,-0.009 z" /><path
     id="path10353"
     style="fill:#cbdc38;fill-opacity:1;fill-rule:nonzero;stroke-width:1.08475"
     d="m 430.81836,831.11328 c -3.59816,0.0938 -7.27625,0.052 -10.74157,1.16306 -0.75981,0.20406 -1.5199,0.40707 -2.27991,0.61038 0.0234,17.03143 -0.0534,34.06322 0.0527,51.0944 0.10538,9.57522 0.18051,19.15804 0.76372,28.7181 0.2599,4.88254 1.63483,9.65923 3.61846,14.10973 3.49368,7.80263 9.61294,14.28396 16.93894,18.62616 6.46975,3.8557 13.71685,6.31502 21.11057,7.65083 7.94011,1.19513 16.00641,1.23275 24.01483,0.943 7.11912,-0.33733 14.27348,-0.90792 21.22451,-2.55614 6.9187,-1.84878 13.71729,-4.4225 19.78756,-8.26605 2.81848,-1.81526 5.4955,-4.00753 7.22119,-6.92994 0.67301,-1.07577 1.49948,-2.10535 2.08004,-3.20884 -10e-6,-31.03958 0,-62.07917 0,-93.11875 -1.88203,-2.02621 -3.59979,-4.21435 -5.61302,-6.11296 -2.17968,-2.03921 -5.31778,-2.17743 -8.13298,-2.35775 -6.02794,-0.26745 -12.07899,-0.52674 -18.10546,-0.10202 -1.97295,0.15835 -3.8493,0.85942 -5.7755,1.2739 -0.0222,19.74681 0.0509,39.49391 -0.0511,59.24052 -0.063,7.79821 -0.13259,15.63683 -0.43533,23.38324 -0.10028,1.98715 -0.15324,3.98451 -0.44907,5.95437 -1.34066,1.40391 -3.30238,1.9618 -5.10017,2.54273 -0.61953,0.18032 -1.11953,0.30969 -1.81394,0.46978 -2.63227,0.59203 -5.3208,0.92488 -8.01558,1.04022 -0.67033,0.0276 -1.65474,0.0448 -2.44922,0.0332 -4.80268,-0.15691 -9.82353,-0.65203 -14.05859,-3.11718 -2.56457,-1.47245 -4.43526,-3.83866 -5.95966,-6.32199 -0.51621,-0.84881 -1.18224,-1.65131 -1.60824,-2.528 -0.29469,-18.1788 -0.48983,-36.35941 -0.86765,-54.53673 -0.20773,-5.82418 -0.23166,-11.68561 -1.17188,-17.45117 -0.48068,-2.76353 -1.46375,-5.7494 -3.94922,-7.3379 -2.25653,-1.39328 -4.87008,-2.13819 -7.50184,-2.3713 -4.22736,-0.44418 -8.48413,-0.55816 -12.73253,-0.5369 z" /><path
     id="path10355"
     style="fill:#cbdc38;fill-opacity:1;fill-rule:nonzero;stroke-width:1.08475"
     d="m 580.48047,786.70703 c -3.08285,0.024 -6.1578,0.29158 -9.19406,0.82879 -1.26476,0.18975 -2.52951,0.37957 -3.79422,0.56965 0.0162,32.8156 -0.0367,65.63131 0.0355,98.44684 0.0704,16.12859 0.11764,32.25954 0.52679,48.38383 0.12323,2.80722 0.0984,5.6361 0.4943,8.42128 0.95914,3.36438 3.77558,5.95886 7.01087,7.14216 4.83994,1.80335 10.10252,1.75938 15.19485,1.70713 3.58651,-0.11361 7.20252,-0.13308 10.74666,-0.74601 1.56734,-0.31353 3.13477,-0.62663 4.70191,-0.94117 0.0279,-12.69218 -0.0656,-25.38515 0.0707,-38.07675 0.0981,-2.54651 8.4e-4,-5.14078 0.58166,-7.63614 0.2037,-0.72661 1.17471,-0.79004 1.79526,-0.88786 0.70768,-0.069 1.00702,0.79081 1.49835,1.17492 10.06233,11.43774 18.98125,23.82419 29.04545,35.25983 3.40146,3.74314 6.91357,7.60797 11.48546,9.93195 3.27317,1.6385 6.94427,2.17076 10.51885,2.74388 2.76021,0.39679 5.45636,-0.55341 8.05947,-1.34013 4.61701,-1.5291 8.58576,-4.91385 10.72963,-9.29088 1.5304,-3.02627 2.18313,-6.38625 3.22521,-9.59204 0.32528,-0.64018 0.29635,-1.19093 -0.35392,-1.58481 -9.92783,-10.01992 -19.95441,-19.94271 -29.78861,-30.05492 -3.68244,-3.84278 -7.42413,-7.63827 -10.88312,-11.68611 1.38472,-2.01523 3.34143,-3.64076 5.05868,-5.26149 6.2112,-5.55286 12.64805,-10.84503 18.71556,-16.56224 3.53323,-3.35643 7.13123,-6.69587 10.1135,-10.56657 4.12801,-5.62929 3.73044,-14.14376 -0.99516,-19.30892 -3.69345,-3.99376 -8.81173,-6.57288 -14.14453,-7.51172 -2.61475,-0.37863 -5.5063,-0.60365 -7.85504,0.84967 -3.07149,1.87277 -5.54576,4.54118 -8.13172,7.00617 -10.03214,10.00551 -19.67868,20.39211 -29.76304,30.34641 -2.0012,1.88401 -3.92261,3.90907 -6.24987,5.39684 -0.83328,0.66608 -1.83917,0.089 -2.73471,-0.0796 -0.0421,-16.6158 0.055,-33.23241 -0.12602,-49.84755 -0.1343,-7.84843 -0.19203,-15.70515 -0.71773,-23.53917 -0.17771,-3.01885 -1.58379,-5.82167 -3.25177,-8.28524 -1.62715,-2.33422 -4.11845,-4.10394 -6.95839,-4.5589 -3.62762,-0.64782 -7.3293,-0.7501 -11.00545,-0.85299 -1.22057,-0.019 -2.44077,-0.0151 -3.66134,0.002 z" /><path
     id="path10357"
     style="fill:#cbdc38;fill-opacity:1;fill-rule:nonzero;stroke-width:1.08475"
     d="m 714.07617,828.99219 c -3.38403,-0.0227 -6.67941,0.96059 -9.72082,2.38683 -2.36557,1.12082 -4.89314,2.18035 -6.70589,4.13383 -0.8253,0.88423 -1.04908,2.21076 -0.52251,3.30551 2.77064,9.84464 5.10598,19.80755 8.02531,29.61135 4.4535,15.2097 9.48132,30.27353 15.64509,44.88161 2.87823,6.66636 5.89129,13.32803 9.90085,19.40364 2.38915,3.62448 5.61288,6.68495 9.28342,8.98886 1.39497,0.80882 3.30653,1.26943 3.87385,2.97587 0.42735,1.7182 -0.98955,3.11677 -1.98392,4.32517 -4.16304,4.72953 -8.64622,9.1923 -13.11863,13.566 -2.03451,1.97664 -4.09265,3.927 -6.14829,5.7875 -2.28885,2.192 -5.00009,3.93837 -7.05408,6.3701 -1.30132,1.48065 -1.61507,3.57632 -1.14821,5.45123 1.13454,5.31022 4.84145,9.86471 9.45549,12.61186 4.2675,2.52332 9.39164,2.85742 14.23451,2.74943 6.01507,-0.1676 11.91603,-2.20756 16.84081,-5.64639 6.75376,-4.68745 11.97652,-11.18789 16.69626,-17.83463 8.07088,-11.51321 14.66924,-23.98184 20.73721,-36.64271 7.65384,-16.2 14.34228,-32.86835 19.81348,-49.93252 3.35891,-10.6524 6.37669,-21.46462 7.95197,-32.54092 0.5425,-4.3958 1.07041,-8.88187 0.37965,-13.29147 -0.4624,-2.98956 -2.04561,-5.85102 -4.60903,-7.5289 -3.34888,-2.36122 -7.56622,-2.819 -11.54365,-3.04662 -5.18226,-0.20975 -10.44742,0.25296 -15.37944,1.93221 -1.19558,0.35995 -2.39075,0.72124 -3.58702,1.07886 -3.21068,14.36453 -6.30185,28.71666 -9.99663,42.97159 -2.99117,11.57895 -6.07935,23.14426 -9.82135,34.50681 -0.80309,2.23729 -1.47848,4.55567 -2.66249,6.62707 -1.1241,0.77463 -2.76106,0.68705 -3.91211,0.006 -0.92697,-2.082 -1.50293,-4.34432 -2.25195,-6.50977 -7.01188,-22.27295 -12.89349,-44.88565 -20.07717,-67.10531 -0.72844,-2.34341 -1.59728,-4.67344 -3.0572,-6.67132 -1.97876,-2.95197 -5.12568,-4.99272 -8.5562,-5.83654 -3.57477,-0.92199 -7.30642,-1.06704 -10.98131,-1.08409 z" /></g><g
   opacity="1"
   id="g257"
   inkscape:label="LabelOutline"
   style="fill-rule:nonzero;clip-rule:evenodd;stroke-linecap:round;stroke-linejoin:round">
<path
   d="M320 797.956C321.195 799.834 322.261 802.351 323.2 805.508C324.139 808.666 324.608 811.951 324.608 815.364C324.608 822.02 323.2 826.756 320.384 829.572C317.568 832.388 313.771 833.796 308.992 833.796L255.232 833.796L255.232 862.724L311.296 862.724C312.661 864.602 313.813 867.076 314.752 870.148C315.691 873.22 316.16 876.463 316.16 879.876C316.16 886.362 314.752 891.012 311.936 893.828C309.12 896.644 305.323 898.052 300.544 898.052L255.744 898.052L255.744 952.068C253.867 952.58 250.923 953.092 246.912 953.604C242.901 954.116 238.933 954.372 235.008 954.372C231.083 954.372 227.627 954.074 224.64 953.476C221.653 952.879 219.136 951.812 217.088 950.276C215.04 948.74 213.504 946.607 212.48 943.876C211.456 941.146 210.944 937.562 210.944 933.124L210.944 821.764C210.944 814.426 213.077 808.623 217.344 804.356C221.611 800.09 227.413 797.956 234.752 797.956L320 797.956Z"
   fill="none"
   opacity="1"
   stroke="#242628"
   stroke-linecap="butt"
   stroke-linejoin="round"
   stroke-width="8"
   id="path247"
   style="stroke-width:8.00125984;stroke-dasharray:none" />
<path
   d="M387.84 952.836C385.963 953.178 383.189 953.647 379.52 954.244C375.851 954.842 372.139 955.14 368.384 955.14C364.629 955.14 361.259 954.884 358.272 954.372C355.285 953.86 352.768 952.836 350.72 951.3C348.672 949.764 347.093 947.674 345.984 945.028C344.875 942.383 344.32 938.927 344.32 934.66L344.32 786.18C346.197 785.839 348.971 785.37 352.64 784.772C356.309 784.175 360.021 783.876 363.776 783.876C367.531 783.876 370.901 784.132 373.888 784.644C376.875 785.156 379.392 786.18 381.44 787.716C383.488 789.252 385.067 791.343 386.176 793.988C387.285 796.634 387.84 800.09 387.84 804.356L387.84 952.836Z"
   fill="none"
   opacity="1"
   stroke="#242628"
   stroke-linecap="butt"
   stroke-linejoin="round"
   stroke-width="8"
   id="path249"
   style="stroke-width:8.00125984;stroke-dasharray:none" />
<path
   d="M415.232 830.468C416.939 829.956 419.627 829.444 423.296 828.932C426.965 828.42 430.763 828.164 434.688 828.164C438.443 828.164 441.813 828.42 444.8 828.932C447.787 829.444 450.304 830.468 452.352 832.004C454.4 833.54 455.979 835.631 457.088 838.276C458.197 840.922 458.752 844.378 458.752 848.644L458.752 903.684C458.752 910.682 460.459 915.674 463.872 918.66C467.285 921.647 472.235 923.14 478.72 923.14C482.645 923.14 485.845 922.799 488.32 922.116C490.795 921.434 492.715 920.751 494.08 920.068L494.08 830.468C495.787 829.956 498.475 829.444 502.144 828.932C505.813 828.42 509.611 828.164 513.536 828.164C517.291 828.164 520.661 828.42 523.648 828.932C526.635 829.444 529.152 830.468 531.2 832.004C533.248 833.54 534.827 835.631 535.936 838.276C537.045 840.922 537.6 844.378 537.6 848.644L537.6 926.468C537.6 935.002 534.016 941.402 526.848 945.668C520.875 949.423 513.749 952.282 505.472 954.244C497.195 956.207 488.192 957.188 478.464 957.188C469.248 957.188 460.757 956.164 452.992 954.116C445.227 952.068 438.528 948.911 432.896 944.644C427.264 940.378 422.912 934.874 419.84 928.132C416.768 921.391 415.232 913.242 415.232 903.684L415.232 830.468Z"
   fill="none"
   opacity="1"
   stroke="#242628"
   stroke-linecap="butt"
   stroke-linejoin="round"
   stroke-width="8"
   id="path251"
   style="stroke-width:8.00125984;stroke-dasharray:none" />
<path
   d="M685.824 930.564C684.971 938.586 682.624 944.73 678.784 948.996C674.944 953.263 669.355 955.396 662.016 955.396C656.555 955.396 651.691 954.074 647.424 951.428C643.157 948.783 638.549 944.303 633.6 937.988L608.256 906.244L608.256 952.836C606.379 953.178 603.605 953.647 599.936 954.244C596.267 954.842 592.555 955.14 588.8 955.14C585.045 955.14 581.675 954.884 578.688 954.372C575.701 953.86 573.184 952.836 571.136 951.3C569.088 949.764 567.509 947.674 566.4 945.028C565.291 942.383 564.736 938.927 564.736 934.66L564.736 786.436C566.613 785.924 569.387 785.37 573.056 784.772C576.725 784.175 580.437 783.876 584.192 783.876C587.947 783.876 591.317 784.132 594.304 784.644C597.291 785.156 599.808 786.18 601.856 787.716C603.904 789.252 605.483 791.343 606.592 793.988C607.701 796.634 608.256 800.09 608.256 804.356L608.256 871.94L652.288 826.884C661.163 826.884 668.288 828.847 673.664 832.772C679.04 836.698 681.728 841.647 681.728 847.62C681.728 850.18 681.301 852.527 680.448 854.66C679.595 856.794 678.272 858.97 676.48 861.188C674.688 863.407 672.384 865.754 669.568 868.228C666.752 870.703 663.467 873.562 659.712 876.804L644.864 889.604L685.824 930.564Z"
   fill="none"
   opacity="1"
   stroke="#242628"
   stroke-linecap="butt"
   stroke-linejoin="round"
   stroke-width="8"
   id="path253"
   style="stroke-width:8.00125984;stroke-dasharray:none" />
<path
   d="M721.408 921.348C719.531 917.082 717.525 912.303 715.392 907.012C713.259 901.722 711.04 895.663 708.736 888.836C706.432 882.01 704.043 874.202 701.568 865.412C699.093 856.623 696.491 846.511 693.76 835.076C696.149 832.687 699.349 830.596 703.36 828.804C707.371 827.012 711.765 826.116 716.544 826.116C722.517 826.116 727.467 827.354 731.392 829.828C735.317 832.303 738.219 836.954 740.096 843.78L760.32 914.18L761.344 914.18C763.392 908.378 765.397 902.063 767.36 895.236C769.323 888.41 771.243 881.37 773.12 874.116C774.997 866.863 776.747 859.61 778.368 852.356C779.989 845.103 781.397 837.978 782.592 830.98C788.736 827.738 795.477 826.116 802.816 826.116C808.789 826.116 813.739 827.396 817.664 829.956C821.589 832.516 823.552 836.954 823.552 843.268C823.552 847.876 822.955 853.21 821.76 859.268C820.565 865.327 818.987 871.77 817.024 878.596C815.061 885.423 812.757 892.463 810.112 899.716C807.467 906.97 804.693 914.095 801.792 921.092C798.891 928.09 795.904 934.703 792.832 940.932C789.76 947.162 786.773 952.751 783.872 957.7C779.093 966.063 774.656 972.89 770.56 978.18C766.464 983.471 762.539 987.61 758.784 990.596C755.029 993.583 751.275 995.631 747.52 996.74C743.765 997.85 739.84 998.404 735.744 998.404C728.576 998.404 722.773 996.271 718.336 992.004C713.899 987.738 711.253 982.191 710.4 975.364C715.861 971.098 721.323 966.362 726.784 961.156C732.245 955.951 737.195 950.618 741.632 945.156C738.731 944.303 735.616 942.298 732.288 939.14C728.96 935.983 725.333 930.052 721.408 921.348Z"
   fill="none"
   opacity="1"
   stroke="#242628"
   stroke-linecap="butt"
   stroke-linejoin="round"
   stroke-width="8"
   id="path255"
   style="stroke-width:8.00125984;stroke-dasharray:none" />
</g><g
   inkscape:groupmode="layer"
   id="layer3"
   inkscape:label="Arrow"><path
     d="M537.624 366.296L720.207 183.61"
     fill="none"
     opacity="1"
     stroke="#242628"
     stroke-linecap="round"
     stroke-linejoin="miter"
     stroke-width="16"
     id="path299"
     style="fill-rule:nonzero;clip-rule:evenodd;stroke-linecap:round;stroke-linejoin:round" /><path
     d="M695.715 242.738L720.207 183.61"
     fill="none"
     opacity="1"
     stroke="#242628"
     stroke-linecap="round"
     stroke-linejoin="miter"
     stroke-width="16"
     id="path301"
     style="fill-rule:nonzero;clip-rule:evenodd;stroke-linecap:round;stroke-linejoin:round" /><path
     d="M661.078 208.101L720.207 183.61"
     fill="none"
     opacity="1"
     stroke="#242628"
     stroke-linecap="round"
     stroke-linejoin="miter"
     stroke-width="16"
     id="path303"
     style="fill-rule:nonzero;clip-rule:evenodd;stroke-linecap:round;stroke-linejoin:round" /><path
     d="M480.021 392.199C480.021 374.382 494.307 359.939 511.929 359.939C529.552 359.939 543.838 374.382 543.838 392.199C543.838 410.016 529.552 424.459 511.929 424.459C494.307 424.459 480.021 410.016 480.021 392.199Z"
     fill="none"
     opacity="1"
     stroke="#242628"
     stroke-linecap="butt"
     stroke-linejoin="miter"
     stroke-width="8"
     id="path305"
     style="fill-rule:nonzero;clip-rule:evenodd;stroke-linecap:round;stroke-linejoin:round" /></g><g
   inkscape:groupmode="layer"
   id="layer4"
   inkscape:label="Heart"><path
     d="M434.831 424.459C411.429 424.459 391.921 455.712 391.921 455.712C391.921 455.712 372.457 424.459 349.073 424.459C322.502 424.459 303.874 444.754 303.874 476.7C303.874 530.195 360.083 556.836 391.683 600.19L392.194 600.19C423.813 556.836 480.021 530.195 480.021 476.7C480.021 444.754 461.376 424.459 434.831 424.459Z"
     fill="none"
     opacity="1"
     stroke="#242628"
     stroke-linecap="round"
     stroke-linejoin="round"
     stroke-width="8"
     id="path297"
     style="fill-rule:nonzero;clip-rule:evenodd;stroke-linecap:round;stroke-linejoin:round" /></g><g
   opacity="1"
   id="g295"
   inkscape:label="Acorn"
   style="fill-rule:nonzero;clip-rule:evenodd;stroke-linecap:round;stroke-linejoin:round">
<path
   d="M356.441 223.931C281.973 278.171 306.966 328.727 311.698 339.351C313.382 343.123 302.319 349.112 308.206 356.3C313.942 363.305 322.823 354.187 328.908 355.857C349.611 361.495 401.215 370.417 453.534 311.05"
   fill="none"
   opacity="1"
   stroke="#242628"
   stroke-linecap="round"
   stroke-linejoin="miter"
   stroke-width="8"
   id="path289" />
<path
   d="M465.25 310.831C505.495 273.06 450.747 227.099 450.747 227.099C450.747 227.099 398.217 177.051 358.35 213.982C358.35 213.982 346.057 224.138 400.042 273.056C454.028 321.978 465.25 310.831 465.25 310.831Z"
   fill="none"
   opacity="1"
   stroke="#242628"
   stroke-linecap="round"
   stroke-linejoin="miter"
   stroke-width="8"
   id="path291" />
<path
   d="M474.103 188.059C472.749 185.254 469.168 182.445 463.829 184.107C459.979 185.306 456.443 190.3 460.649 194.811C464.018 198.435 474.698 215.928 451.764 226.968L453.951 229.629C482.194 217.961 476.263 192.542 474.103 188.059Z"
   fill="none"
   opacity="1"
   stroke="#242628"
   stroke-linecap="round"
   stroke-linejoin="miter"
   stroke-width="8"
   id="path293" />
</g><g
   opacity="1"
   id="g287"
   inkscape:label="Clover"
   style="fill-rule:nonzero;clip-rule:evenodd;stroke-linecap:round;stroke-linejoin:round">
<path
   d="M632.203 519.649C636.513 549.926 641.459 577.976 662.473 595.824C664.785 599.287 648.429 603.955 642.897 595.084C640.255 590.845 622.967 566.385 632.203 519.649Z"
   fill="none"
   opacity="1"
   stroke="#242628"
   stroke-linecap="round"
   stroke-linejoin="round"
   stroke-width="8"
   id="path283" />
<path
   d="M701.278 484.756C673.511 484.756 645.868 510.606 640.964 505.964C636.061 501.322 674.769 468.853 674.769 441.208C674.769 431.957 665.299 424.459 649.99 424.459C640.213 424.459 636.494 427.077 632.288 427.077C628.086 427.081 624.367 424.463 614.59 424.463C604.813 424.463 589.81 429.889 589.81 442.951C589.81 473.923 627.104 499.448 623.615 505.968C620.126 512.488 591.578 486.433 562.815 486.433C553.226 486.433 540.436 491.565 544.672 509.043C546.858 518.06 550.895 520.224 551.754 524.115C552.616 528.011 550.17 536.017 552.172 545.071C554.173 554.125 562.125 566.254 578.745 563.054C604.855 558.031 622.358 519.649 632.203 519.649C646.945 519.649 664.287 549.655 688.215 557.398C699.257 560.971 710.41 554.128 712.408 545.075C714.409 536.017 711.967 529.687 712.826 525.792C713.685 521.897 717.572 519.265 719.574 510.207C721.571 501.154 719.696 484.756 701.278 484.756Z"
   fill="none"
   opacity="1"
   stroke="#242628"
   stroke-linecap="round"
   stroke-linejoin="round"
   stroke-width="8"
   id="path285" />
</g></svg>
