<?xml version="1.0" encoding="UTF-8"?>
<svg stroke-linecap="round" stroke-miterlimit="10" version="1.1" viewBox="0 0 1024 1024" xml:space="preserve" xmlns="http://www.w3.org/2000/svg">


<g clip-rule="evenodd" stroke-linejoin="round">

<g clip-rule="evenodd" fill="none" stroke="#f9f9f9" stroke-linecap="butt" stroke-width="8">

<path d="m210.02 393.92c0-167.89 136.11-304 304-304 167.9 0 304 136.11 304 304 0 167.9-136.1 304-304 304-167.89 0-304-136.1-304-304z"/>
<path d="m146 394.08c0-203.24 164.76-368 368-368s368 164.76 368 368-164.76 368-368 368-368-164.76-368-368z"/>

















</g><g clip-rule="evenodd" stroke-linecap="round" stroke-width=".76703"><path d="m655.96 56.596c-1.9351 0.21696-2.9257 2.1361-3.7286 3.6813-2.5506 5.1972-4.638 10.606-6.8919 15.935-4.5672 11.064-9.1234 22.133-13.688 33.198 11.311 5.6696 22.77 11.071 33.736 17.399 9.6996 5.5394 19.095 11.616 28.09 18.24 13.118 9.6548 25.491 20.594 36.978 32.231 5.5378 5.6317 10.871 11.464 15.973 17.494 1.4134 1.6839 2.9361 3.5251 4.3672 5.2891 2.5932 3.229 5.134 6.4897 7.6183 9.858 10.956 14.766 20.604 30.703 28.727 47.277 2.4651 5.0621 4.8439 10.166 7.2684 15.248 12.393-5.2274 24.921-10.315 37.339-15.569 4.5689-1.9872 9.199-3.8698 13.582-6.249 1.0943-0.60823 2.4216-1.5091 2.3286-2.913-0.43144-1.9567-1.4331-3.7346-2.203-5.5731-8.8728-19.377-19.267-38.071-31.282-55.678-23.467-34.528-52.926-64.956-86.625-89.593-10.659-7.7746-21.689-15.056-33.144-21.606-10.02-5.5992-20.191-10.936-30.561-15.861-2.2917-1.0018-4.5282-2.2235-6.9805-2.7856-0.29934-0.03683-0.6041-0.06181-0.9043-0.02148z" fill="#8bc34b"/><path d="m849.39 255.51c-2.2202 0.13876-4.3037 1.0578-6.3618 1.8366-14.622 6.1917-29.336 12.156-43.95 18.385-0.64795 0.27778-1.2753 0.60074-1.9146 0.89758-0.0801 1.0213-0.0369 2.04 0.33771 3.0058 2.3928 7.7543 5.3051 15.338 7.5997 23.124 5.649 18.733 9.5461 37.993 11.683 57.442 0.56033 5.7687 0.8008 11.665 0.98547 17.391 0.26409 9.5444 0.27366 19.096 0.0137 28.641-0.19683 6.0612-0.43724 12.313-1.1054 18.416-2.0222 17.33-5.2226 34.548-10.113 51.308-2.6486 9.2321-5.8123 18.305-8.9023 27.395-0.4827 0.99519-0.63272 2.2574 0.12439 3.1619 1.2849 1.5221 3.2387 2.2254 4.9715 3.1052 7.1739 3.2449 14.51 6.1183 21.768 9.1681 7.9236 3.2399 15.772 6.666 23.731 9.818 0.57375 0.17084 1.2204 0.49929 1.7782 0.47595 0.74809-0.50135 1.4098-1.1134 1.721-1.9818 2.5067-5.7492 4.4803-11.712 6.5263-17.636 7.6526-22.766 13.247-46.245 16.276-70.08 3.4211-26.718 3.6513-53.796 1.4356-80.623-1.7569-21.045-5.4741-41.92-11.044-62.29-3.0607-11.301-6.7376-22.43-10.77-33.419-0.87606-2.1913-1.5914-4.4785-2.8022-6.514-0.39808-0.69359-1.2095-1.0308-1.9883-1.0273z" fill="#ffa724"/><path d="m793.82 513.21c-5.3993 10.613-10.544 21.367-16.546 31.66-16.282 28.268-37 54.008-61.379 75.703-21.78 19.438-46.418 35.607-72.725 48.233-3.8322 1.8608-7.6633 3.724-11.496 5.5829 5.7615 14.286 11.741 28.482 17.653 42.706 1.3706 3.277 2.7273 6.56 4.1396 9.8194 0.70214 0.92841 1.9572 1.0931 3.015 0.75481 3.5315-1.0424 6.8469-2.6928 10.191-4.2118 17.217-8.1583 33.831-17.596 49.654-28.209 18.061-12.129 34.874-26.072 50.404-41.297 16.419-16.043 31.661-33.354 44.804-52.196 12.503-17.829 23.092-36.934 32.446-56.581 1.4604-3.1433 3.057-6.2372 4.277-9.4839 0.21873-0.66668-0.0874-1.3285-0.17969-1.9922-7.8111-3.3837-15.714-6.552-23.569-9.8331-9.948-4.1113-19.903-8.2083-29.855-12.311-0.278 0.55143-0.55599 1.1029-0.83399 1.6543z" fill="#2094f3"/><path d="m397.7 677.07c-0.63818 0.0469-1.207 0.1905-1.3841 0.88272-1.4508 2.906-2.6072 5.9529-3.9001 8.9323-5.5759 13.386-11.126 26.782-16.457 40.268-0.4973 1.1795-0.87441 2.3979-1.089 3.6608 2.5294 1.5629 5.4098 2.3922 8.166 3.4549 12.163 4.4017 24.462 8.4641 37.001 11.662 21.212 5.4447 42.889 9.1066 64.723 10.816 9.3906 0.5877 18.806 0.62854 28.212 0.64786 8.8124-0.0454 17.636-0.0709 26.429-0.7126 25.221-2.0094 50.277-6.3853 74.574-13.477 10.056-2.9376 20.009-6.2458 29.77-10.052 1.622-0.72982 3.5507-1.3253 4.5105-2.9373 0.76354-1.2421 0.11899-2.6627-0.38144-3.8672-5.6721-14.076-11.523-28.078-17.407-42.066-1.0178-2.2813-1.8628-4.647-3.0551-6.8459-0.77738-0.34461-1.6084-0.52115-2.4414-0.26367-4.6088 1.1766-8.978 3.1104-13.494 4.5838-15.598 5.2464-31.608 9.2605-47.818 12.09-4.715 0.80201-9.4662 1.4934-14.127 2.0577-5.6289 0.68625-11.272 1.2081-16.886 1.5789-13.914 0.91887-28.002 0.89743-41.923-0.0533-8.1666-0.55848-16.216-1.4238-24.313-2.6175-5.9793-0.88248-12.07-1.9648-18.038-3.215-4.5347-0.94548-9.2173-2.0427-13.664-3.194-5.4279-1.4046-10.809-2.96-16.103-4.663-6.2631-1.9349-12.34-4.424-18.62-6.3053-0.7412-0.17641-1.5166-0.51128-2.285-0.36588z" fill="#795649"/><path d="m227.77 512.19c-15.863 6.6247-31.786 13.106-47.563 19.932-1.2054 0.58349-2.5598 0.99496-3.6091 1.8118-0.58465 0.83605-0.53794 1.8856-0.19081 2.8084 1.5343 4.2215 3.5806 8.2343 5.5062 12.286 4.6665 9.487 9.4838 18.909 14.766 28.071 28.37 48.052 67.756 89.556 114.29 120.36 16.044 10.605 32.907 19.988 50.455 27.865 2.2316 0.91626 4.4474 1.9725 6.8277 2.4354 1.0272 0.15525 2.0702-0.42594 2.4171-1.414 2.9056-6.3734 5.5449-12.866 8.258-19.323 4.5011-10.828 8.9584-21.674 13.442-32.509-11.959-6.0898-24.094-11.864-35.687-18.643-3.8217-2.2116-7.5934-4.514-11.234-6.8474-4.9854-3.1948-9.8689-6.5539-14.602-10.033-12.073-8.9014-23.457-18.726-34.178-29.212-8.3084-8.1846-16.136-16.855-23.439-25.948-1.192-1.4953-2.5081-3.156-3.7196-4.7368-13.173-17.071-24.471-35.569-33.812-54.998-2.0626-4.2092-4.1226-8.4198-6.1872-12.628-0.57878 0.24024-1.1576 0.48047-1.7363 0.72071z" fill="#546d78"/><path d="m174.17 255.6c-0.65412-0.0441-1.1583 0.17855-1.4453 0.78711-1.1003 1.6458-1.6668 3.5826-2.4217 5.3998-3.4027 9.0966-6.4648 18.321-9.2505 27.624-5.1852 17.664-8.877 35.747-11.39 53.978-0.7906 5.9406-1.6115 11.883-2.1188 17.856-0.66701 9.9616-0.72932 19.953-0.73311 29.934 0.0511 11.309 0.2241 22.626 0.98788 33.912 0.53401 6.8685 1.5268 13.692 2.5388 20.504 4.1943 27.049 11.076 53.708 20.849 79.285 0.55442 1.2333 0.9044 2.6506 1.8677 3.6328 0.50599 0.22718 0.96685 0.90001 1.5346 0.48804 8.5585-3.3948 17.044-6.9712 25.56-10.471 7.3427-3.0808 14.745-6.0398 21.948-9.442 1.5485-0.8337 3.3393-1.5014 4.3962-2.9809 0.57654-0.88182 0.31828-1.937-0.0714-2.8357-3.3714-9.8774-6.9168-19.707-9.6538-29.786-4.404-15.829-7.4883-32.021-9.2671-48.353-0.23909-2.2982-0.48896-4.7835-0.68461-7.1586-0.42938-4.9896-0.72144-10.092-0.90719-15.158-0.20527-6.1114-0.24402-12.415-0.08-18.599 0.31832-12.315 1.3865-24.797 3.1962-37.056 0.87073-5.9447 1.9219-11.846 3.1416-17.773 1.644-7.9176 3.6339-15.972 5.8953-23.733 1.6833-5.8404 3.6198-11.783 5.6612-17.585 1.0762-3.2197 2.3013-6.4047 3.0876-9.7106 0.0373-0.53357 0.0855-1.2656-0.25528-1.6716-1.5966-1.2579-3.593-1.8399-5.4063-2.7085-11.634-4.951-23.384-9.6297-35.15-14.257-3.6786-1.3882-7.3139-2.9159-11.074-4.0704-0.25196-0.0312-0.49944-0.10786-0.7539-0.0508z" fill="#ef5552"/><path d="m368.46 56.762c-1.9823 0.12338-3.7676 1.1412-5.5736 1.8825-7.4451 3.4743-14.801 7.1451-22.054 11.005-31.534 16.828-60.698 38.142-86.053 63.352-22.487 22.327-41.985 47.638-58.007 74.97-5.6752 10.11-10.99 20.421-16.113 30.821-1.1995 2.5544-2.5279 5.064-3.4575 7.7333-0.48033 1.4644 0.64424 2.8082 1.8223 3.5352 3.4519 2.163 7.2496 3.693 10.951 5.3684 12.796 5.5445 25.721 10.782 38.594 16.143 0.94968-0.95888 1.6469-2.1042 2.2292-3.3141 4.0326-7.6838 7.7735-15.521 12.029-23.088 7.9607-14.405 16.959-28.242 26.998-41.287 0.81425-1.0313 1.767-2.2636 2.6389-3.3689 14.475-18.258 31.117-34.783 49.408-49.212 10.599-8.437 21.806-16.106 33.498-22.949 7.0564-4.1444 14.456-8.1156 21.812-11.896 3.2018-1.6437 6.5828-3.2814 9.8067-5.0152 1.5135-0.87456 3.4176-1.8373 3.7246-3.7432 0.21014-1.6209-0.83385-3.041-1.312-4.5242-6.1182-14.883-12.27-29.754-18.51-44.587-0.31613-1.0787-1.2847-1.879-2.4321-1.8266z" fill="#ab47bd"/><path d="m506.77 26.826c-10.224 0.13133-20.462 0.33554-30.645 1.3149-25.813 2.7878-51.4 7.9751-76.12 15.953-6.4372 2.1369-12.86 4.3227-19.254 6.5874-1.5115 0.62547-3.2557 0.98563-4.4291 2.1933-0.87164 0.98514-0.5595 2.3788-0.0775 3.4675 3.1156 8.0607 6.6401 15.955 9.9778 23.926 3.8285 9.0152 7.655 18.031 11.487 27.045 9.784-3.3723 19.512-6.9331 29.477-9.7481 17.378-4.9644 35.187-8.3976 53.146-10.397 5.7056-0.56163 11.55-0.79832 17.206-0.98554 9.5574-0.26983 19.122-0.27293 28.68-0.01172 5.9901 0.19196 12.169 0.44336 18.205 1.0648 7.4602 0.8476 14.895 1.9267 22.284 3.2614 1.25 0.23194 2.7046 0.50866 4.0332 0.75781 1.1477 0.23743 2.5481 0.51727 3.793 0.771 12.867 2.6797 25.521 6.3073 37.961 10.534 4.3097 1.4094 8.5962 2.9087 12.973 4.0984 0.53465 0.0735 1.2031 0.17475 1.682 0.0138 1.3697-1.5991 1.9598-3.6732 2.8508-5.5455 5.3422-12.667 10.411-25.445 15.346-38.276 0.97971-2.7114 2.1253-5.3757 2.8809-8.1602 0.13726-0.55458-0.067-1.1118-0.10937-1.668-1.8055-1.2766-3.9893-1.8269-6.014-2.6555-14.132-5.1981-28.505-9.7716-43.141-13.329-17.334-4.2478-34.969-7.2576-52.724-9.0519-10.448-0.88893-20.942-1.0964-31.423-1.1689-2.6812-0.02159-5.3622 2.14e-4 -8.0434 0.0099z" fill="#ffec3d"/></g><path d="m208.02 391.92c0-167.89 136.11-304 304-304 167.9 0 304 136.11 304 304 0 167.9-136.1 304-304 304-167.89 0-304-136.1-304-304z" fill="none" stroke="#242628" stroke-linecap="butt" stroke-width="8"/>
<path d="m144 392.08c0-203.24 164.76-368 368-368s368 164.76 368 368-164.76 368-368 368-368-164.76-368-368z" fill="none" stroke="#242628" stroke-linecap="butt" stroke-width="8"/>
<path d="m371.38 731.45 24.493-59.132" fill="none" stroke="#242628" stroke-linecap="butt" stroke-width="8"/>
<path d="m652.88 731.99-24.491-59.129 24.491 59.129z" fill="none" stroke="#242628" stroke-linecap="butt" stroke-width="8"/>
<path d="m628.34 111.08 24.491-59.128" fill="none" stroke="#242628" stroke-linecap="butt" stroke-width="8"/>
<path d="m792.56 275.71 59.128-24.492" fill="none" stroke="#242628" stroke-linecap="butt" stroke-width="8"/>
<path d="m231.22 275.61-59.129-24.491" fill="none" stroke="#242628" stroke-linecap="butt" stroke-width="8"/>
<path d="m851.9 532.7-59.128-24.492 59.128 24.492z" fill="none" stroke="#242628" stroke-linecap="butt" stroke-width="8"/>


<path d="m396.2 109.95-24.608-58.126" fill="none" stroke="#242628" stroke-linecap="butt" stroke-width="8"/><path d="m172.12 532.71 59.129-24.491" clip-rule="evenodd" fill="none" stroke="#242628" stroke-linecap="round" stroke-width="8"/>








</g><g clip-rule="evenodd" stroke-linecap="butt" stroke-linejoin="round">
<g clip-rule="evenodd" fill="none" stroke="#f9f9f9" stroke-width="8.0013">
<path d="m322 799.96c1.195 1.878 2.261 4.395 3.2 7.552 0.939 3.158 1.408 6.443 1.408 9.856 0 6.656-1.408 11.392-4.224 14.208s-6.613 4.224-11.392 4.224h-53.76v28.928h56.064c1.365 1.878 2.517 4.352 3.456 7.424s1.408 6.315 1.408 9.728c0 6.486-1.408 11.136-4.224 13.952s-6.613 4.224-11.392 4.224h-44.8v54.016c-1.877 0.512-4.821 1.024-8.832 1.536s-7.979 0.768-11.904 0.768-7.381-0.298-10.368-0.896c-2.987-0.597-5.504-1.664-7.552-3.2s-3.584-3.669-4.608-6.4c-1.024-2.73-1.536-6.314-1.536-10.752v-111.36c0-7.338 2.133-13.141 6.4-17.408 4.267-4.266 10.069-6.4 17.408-6.4z"/>
<path d="m389.84 954.84c-1.877 0.342-4.651 0.811-8.32 1.408-3.669 0.598-7.381 0.896-11.136 0.896s-7.125-0.256-10.112-0.768-5.504-1.536-7.552-3.072-3.627-3.626-4.736-6.272c-1.109-2.645-1.664-6.101-1.664-10.368v-148.48c1.877-0.341 4.651-0.81 8.32-1.408 3.669-0.597 7.381-0.896 11.136-0.896s7.125 0.256 10.112 0.768 5.504 1.536 7.552 3.072 3.627 3.627 4.736 6.272c1.109 2.646 1.664 6.102 1.664 10.368z"/>
<path d="m417.23 832.47c1.707-0.512 4.395-1.024 8.064-1.536s7.467-0.768 11.392-0.768c3.755 0 7.125 0.256 10.112 0.768s5.504 1.536 7.552 3.072 3.627 3.627 4.736 6.272c1.109 2.646 1.664 6.102 1.664 10.368v55.04c0 6.998 1.707 11.99 5.12 14.976 3.413 2.987 8.363 4.48 14.848 4.48 3.925 0 7.125-0.341 9.6-1.024 2.475-0.682 4.395-1.365 5.76-2.048v-89.6c1.707-0.512 4.395-1.024 8.064-1.536s7.467-0.768 11.392-0.768c3.755 0 7.125 0.256 10.112 0.768s5.504 1.536 7.552 3.072 3.627 3.627 4.736 6.272c1.109 2.646 1.664 6.102 1.664 10.368v77.824c0 8.534-3.584 14.934-10.752 19.2-5.973 3.755-13.099 6.614-21.376 8.576-8.277 1.963-17.28 2.944-27.008 2.944-9.216 0-17.707-1.024-25.472-3.072s-14.464-5.205-20.096-9.472c-5.632-4.266-9.984-9.77-13.056-16.512-3.072-6.741-4.608-14.89-4.608-24.448z"/>
<path d="m687.82 932.56c-0.853 8.022-3.2 14.166-7.04 18.432-3.84 4.267-9.429 6.4-16.768 6.4-5.461 0-10.325-1.322-14.592-3.968-4.267-2.645-8.875-7.125-13.824-13.44l-25.344-31.744v46.592c-1.877 0.342-4.651 0.811-8.32 1.408-3.669 0.598-7.381 0.896-11.136 0.896s-7.125-0.256-10.112-0.768-5.504-1.536-7.552-3.072-3.627-3.626-4.736-6.272c-1.109-2.645-1.664-6.101-1.664-10.368v-148.22c1.877-0.512 4.651-1.066 8.32-1.664 3.669-0.597 7.381-0.896 11.136-0.896s7.125 0.256 10.112 0.768 5.504 1.536 7.552 3.072 3.627 3.627 4.736 6.272c1.109 2.646 1.664 6.102 1.664 10.368v67.584l44.032-45.056c8.875 0 16 1.963 21.376 5.888 5.376 3.926 8.064 8.875 8.064 14.848 0 2.56-0.427 4.907-1.28 7.04-0.853 2.134-2.176 4.31-3.968 6.528-1.792 2.219-4.096 4.566-6.912 7.04-2.816 2.475-6.101 5.334-9.856 8.576l-14.848 12.8z"/>
<path d="m723.41 923.35c-1.877-4.266-3.883-9.045-6.016-14.336-2.133-5.29-4.352-11.349-6.656-18.176-2.304-6.826-4.693-14.634-7.168-23.424-2.475-8.789-5.077-18.901-7.808-30.336 2.389-2.389 5.589-4.48 9.6-6.272s8.405-2.688 13.184-2.688c5.973 0 10.923 1.238 14.848 3.712 3.925 2.475 6.827 7.126 8.704 13.952l20.224 70.4h1.024c2.048-5.802 4.053-12.117 6.016-18.944 1.963-6.826 3.883-13.866 5.76-21.12 1.877-7.253 3.627-14.506 5.248-21.76 1.621-7.253 3.029-14.378 4.224-21.376 6.144-3.242 12.885-4.864 20.224-4.864 5.973 0 10.923 1.28 14.848 3.84s5.888 6.998 5.888 13.312c0 4.608-0.597 9.942-1.792 16-1.195 6.059-2.773 12.502-4.736 19.328-1.963 6.827-4.267 13.867-6.912 21.12-2.645 7.254-5.419 14.379-8.32 21.376-2.901 6.998-5.888 13.611-8.96 19.84-3.072 6.23-6.059 11.819-8.96 16.768-4.779 8.363-9.216 15.19-13.312 20.48-4.096 5.291-8.021 9.43-11.776 12.416-3.755 2.987-7.509 5.035-11.264 6.144-3.755 1.11-7.68 1.664-11.776 1.664-7.168 0-12.971-2.133-17.408-6.4-4.437-4.266-7.083-9.813-7.936-16.64 5.461-4.266 10.923-9.002 16.384-14.208 5.461-5.205 10.411-10.538 14.848-16-2.901-0.853-6.016-2.858-9.344-6.016-3.328-3.157-6.955-9.088-10.88-17.792z"/>
</g><path d="m320 797.96c1.195 1.878 2.261 4.395 3.2 7.552 0.939 3.158 1.408 6.443 1.408 9.856 0 6.656-1.408 11.392-4.224 14.208s-6.613 4.224-11.392 4.224h-53.76v28.928h56.064c1.365 1.878 2.517 4.352 3.456 7.424s1.408 6.315 1.408 9.728c0 6.486-1.408 11.136-4.224 13.952s-6.613 4.224-11.392 4.224h-44.8v54.016c-1.877 0.512-4.821 1.024-8.832 1.536s-7.979 0.768-11.904 0.768-7.381-0.298-10.368-0.896c-2.987-0.597-5.504-1.664-7.552-3.2s-3.584-3.669-4.608-6.4c-1.024-2.73-1.536-6.314-1.536-10.752v-111.36c0-7.338 2.133-13.141 6.4-17.408 4.267-4.266 10.069-6.4 17.408-6.4h85.248z" fill="#cbdc38" stroke="#242628" stroke-width="8.0013"/>
<path d="m387.84 952.84c-1.877 0.342-4.651 0.811-8.32 1.408-3.669 0.598-7.381 0.896-11.136 0.896s-7.125-0.256-10.112-0.768-5.504-1.536-7.552-3.072-3.627-3.626-4.736-6.272c-1.109-2.645-1.664-6.101-1.664-10.368v-148.48c1.877-0.341 4.651-0.81 8.32-1.408 3.669-0.597 7.381-0.896 11.136-0.896s7.125 0.256 10.112 0.768 5.504 1.536 7.552 3.072 3.627 3.627 4.736 6.272c1.109 2.646 1.664 6.102 1.664 10.368v148.48z" fill="#cbdc38" stroke="#242628" stroke-width="8.0013"/>
<path d="m415.23 830.47c1.707-0.512 4.395-1.024 8.064-1.536s7.467-0.768 11.392-0.768c3.755 0 7.125 0.256 10.112 0.768s5.504 1.536 7.552 3.072 3.627 3.627 4.736 6.272c1.109 2.646 1.664 6.102 1.664 10.368v55.04c0 6.998 1.707 11.99 5.12 14.976 3.413 2.987 8.363 4.48 14.848 4.48 3.925 0 7.125-0.341 9.6-1.024 2.475-0.682 4.395-1.365 5.76-2.048v-89.6c1.707-0.512 4.395-1.024 8.064-1.536s7.467-0.768 11.392-0.768c3.755 0 7.125 0.256 10.112 0.768s5.504 1.536 7.552 3.072 3.627 3.627 4.736 6.272c1.109 2.646 1.664 6.102 1.664 10.368v77.824c0 8.534-3.584 14.934-10.752 19.2-5.973 3.755-13.099 6.614-21.376 8.576-8.277 1.963-17.28 2.944-27.008 2.944-9.216 0-17.707-1.024-25.472-3.072s-14.464-5.205-20.096-9.472c-5.632-4.266-9.984-9.77-13.056-16.512-3.072-6.741-4.608-14.89-4.608-24.448v-73.216z" fill="#cbdc38" stroke="#242628" stroke-width="8.0013"/>
<path d="m685.82 930.56c-0.853 8.022-3.2 14.166-7.04 18.432-3.84 4.267-9.429 6.4-16.768 6.4-5.461 0-10.325-1.322-14.592-3.968-4.267-2.645-8.875-7.125-13.824-13.44l-25.344-31.744v46.592c-1.877 0.342-4.651 0.811-8.32 1.408-3.669 0.598-7.381 0.896-11.136 0.896s-7.125-0.256-10.112-0.768-5.504-1.536-7.552-3.072-3.627-3.626-4.736-6.272c-1.109-2.645-1.664-6.101-1.664-10.368v-148.22c1.877-0.512 4.651-1.066 8.32-1.664 3.669-0.597 7.381-0.896 11.136-0.896s7.125 0.256 10.112 0.768 5.504 1.536 7.552 3.072 3.627 3.627 4.736 6.272c1.109 2.646 1.664 6.102 1.664 10.368v67.584l44.032-45.056c8.875 0 16 1.963 21.376 5.888 5.376 3.926 8.064 8.875 8.064 14.848 0 2.56-0.427 4.907-1.28 7.04-0.853 2.134-2.176 4.31-3.968 6.528-1.792 2.219-4.096 4.566-6.912 7.04-2.816 2.475-6.101 5.334-9.856 8.576l-14.848 12.8 40.96 40.96z" fill="#cbdc38" stroke="#242628" stroke-width="8.0013"/>
<path d="m721.41 921.35c-1.877-4.266-3.883-9.045-6.016-14.336-2.133-5.29-4.352-11.349-6.656-18.176-2.304-6.826-4.693-14.634-7.168-23.424-2.475-8.789-5.077-18.901-7.808-30.336 2.389-2.389 5.589-4.48 9.6-6.272s8.405-2.688 13.184-2.688c5.973 0 10.923 1.238 14.848 3.712 3.925 2.475 6.827 7.126 8.704 13.952l20.224 70.4h1.024c2.048-5.802 4.053-12.117 6.016-18.944 1.963-6.826 3.883-13.866 5.76-21.12 1.877-7.253 3.627-14.506 5.248-21.76 1.621-7.253 3.029-14.378 4.224-21.376 6.144-3.242 12.885-4.864 20.224-4.864 5.973 0 10.923 1.28 14.848 3.84s5.888 6.998 5.888 13.312c0 4.608-0.597 9.942-1.792 16-1.195 6.059-2.773 12.502-4.736 19.328-1.963 6.827-4.267 13.867-6.912 21.12-2.645 7.254-5.419 14.379-8.32 21.376-2.901 6.998-5.888 13.611-8.96 19.84-3.072 6.23-6.059 11.819-8.96 16.768-4.779 8.363-9.216 15.19-13.312 20.48-4.096 5.291-8.021 9.43-11.776 12.416-3.755 2.987-7.509 5.035-11.264 6.144-3.755 1.11-7.68 1.664-11.776 1.664-7.168 0-12.971-2.133-17.408-6.4-4.437-4.266-7.083-9.813-7.936-16.64 5.461-4.266 10.923-9.002 16.384-14.208 5.461-5.205 10.411-10.538 14.848-16-2.901-0.853-6.016-2.858-9.344-6.016-3.328-3.157-6.955-9.088-10.88-17.792z" fill="#cbdc38" stroke="#242628" stroke-width="8.0013"/>
</g><g clip-rule="evenodd" stroke-linecap="round" stroke-linejoin="round"><g stroke="#f9f9f9"><path d="m539.62 368.3 182.58-182.69" fill="#f9f9f9" stroke-width="16"/><path d="m697.72 244.74 24.492-59.128" fill="#f9f9f9" stroke-width="16"/><path d="m663.08 210.1 59.129-24.491" fill="#f9f9f9" stroke-width="16"/><path d="m482.02 394.2c0-17.817 14.286-32.26 31.908-32.26 17.623 0 31.909 14.443 31.909 32.26s-14.286 32.26-31.909 32.26c-17.622 0-31.908-14.443-31.908-32.26z" fill="none" stroke-width="8"/></g><path d="m537.62 366.3 182.58-182.69" fill="none" stroke="#242628" stroke-width="16"/><path d="m695.72 242.74 24.492-59.128" fill="none" stroke="#242628" stroke-width="16"/><path d="m661.08 208.1 59.129-24.491" fill="none" stroke="#242628" stroke-width="16"/><path d="m480.02 392.2c0-17.817 14.286-32.26 31.908-32.26 17.623 0 31.909 14.443 31.909 32.26s-14.286 32.26-31.909 32.26c-17.622 0-31.908-14.443-31.908-32.26z" fill="#cbdc38" stroke="#242628" stroke-width="8"/></g><g clip-rule="evenodd" stroke-linecap="round" stroke-linejoin="round"><path d="m436.83 426.46c-23.402 0-42.91 31.253-42.91 31.253s-19.464-31.253-42.848-31.253c-26.571 0-45.199 20.295-45.199 52.241 0 53.495 56.209 80.136 87.809 123.49h0.511c31.619-43.354 87.827-69.995 87.827-123.49 0-31.946-18.645-52.241-45.19-52.241z" clip-rule="evenodd" fill="none" stroke="#f9f9f9" stroke-linecap="round" stroke-linejoin="round" stroke-width="8"/><path d="m434.83 424.46c-23.402 0-42.91 31.253-42.91 31.253s-19.464-31.253-42.848-31.253c-26.571 0-45.199 20.295-45.199 52.241 0 53.495 56.209 80.136 87.809 123.49h0.511c31.619-43.354 87.827-69.995 87.827-123.49 0-31.946-18.645-52.241-45.19-52.241z" fill="#ef5552" stroke="#242628" stroke-width="8"/></g><g clip-rule="evenodd" stroke-linecap="round" stroke-width="8">
<g clip-rule="evenodd" fill="none" stroke="#f9f9f9">
<path d="m358.44 225.93c-74.468 54.24-49.475 104.8-44.743 115.42 1.684 3.772-9.379 9.761-3.492 16.949 5.736 7.005 14.617-2.113 20.702-0.443 20.703 5.638 72.307 14.56 124.63-44.807"/>
<path d="m467.25 312.83c40.245-37.771-14.503-83.732-14.503-83.732s-52.53-50.048-92.397-13.117c0 0-12.293 10.156 41.692 59.074 53.986 48.922 65.208 37.775 65.208 37.775z"/>
<path d="m476.1 190.06c-1.354-2.805-4.935-5.614-10.274-3.952-3.85 1.199-7.386 6.193-3.18 10.704 3.369 3.624 14.049 21.117-8.885 32.157l2.187 2.661c28.243-11.668 22.312-37.087 20.152-41.57z"/>
</g><path d="m356.44 223.93c-74.468 54.24-49.475 104.8-44.743 115.42 1.684 3.772-9.379 9.761-3.492 16.949 5.736 7.005 14.617-2.113 20.702-0.443 20.703 5.638 72.307 14.56 124.63-44.807" fill="#795649" stroke="#242628"/>
<path d="m465.25 310.83c40.245-37.771-14.503-83.732-14.503-83.732s-52.53-50.048-92.397-13.117c0 0-12.293 10.156 41.692 59.074 53.986 48.922 65.208 37.775 65.208 37.775z" fill="#546d78" stroke="#242628"/>
<path d="m474.1 188.06c-1.354-2.805-4.935-5.614-10.274-3.952-3.85 1.199-7.386 6.193-3.18 10.704 3.369 3.624 14.049 21.117-8.885 32.157l2.187 2.661c28.243-11.668 22.312-37.087 20.152-41.57z" fill="#546d78" stroke="#242628"/>
</g><g clip-rule="evenodd" stroke-linecap="round" stroke-linejoin="round" stroke-width="8">
<g clip-rule="evenodd" fill="none" stroke="#f9f9f9">
<path d="m634.2 521.65c4.31 30.277 9.256 58.327 30.27 76.175 2.312 3.463-14.044 8.131-19.576-0.74-2.642-4.239-19.93-28.699-10.694-75.435z"/>
<path d="m703.28 486.76c-27.767 0-55.41 25.85-60.314 21.208-4.903-4.642 33.805-37.111 33.805-64.756 0-9.251-9.47-16.749-24.779-16.749-9.777 0-13.496 2.618-17.702 2.618-4.202 4e-3 -7.921-2.614-17.698-2.614s-24.78 5.426-24.78 18.488c0 30.972 37.294 56.497 33.805 63.017s-32.037-19.535-60.8-19.535c-9.589 0-22.379 5.132-18.143 22.61 2.186 9.017 6.223 11.181 7.082 15.072 0.862 3.896-1.584 11.902 0.418 20.956 2.001 9.054 9.953 21.183 26.573 17.983 26.11-5.023 43.613-43.405 53.458-43.405 14.742 0 32.084 30.006 56.012 37.749 11.042 3.573 22.195-3.27 24.193-12.323 2.001-9.058-0.441-15.388 0.418-19.283s4.746-6.527 6.748-15.585c1.997-9.053 0.122-25.451-18.296-25.451z"/>
</g><path d="m632.2 519.65c4.31 30.277 9.256 58.327 30.27 76.175 2.312 3.463-14.044 8.131-19.576-0.74-2.642-4.239-19.93-28.699-10.694-75.435z" fill="#4cae4f" stroke="#242628"/>
<path d="m701.28 484.76c-27.767 0-55.41 25.85-60.314 21.208-4.903-4.642 33.805-37.111 33.805-64.756 0-9.251-9.47-16.749-24.779-16.749-9.777 0-13.496 2.618-17.702 2.618-4.202 4e-3 -7.921-2.614-17.698-2.614s-24.78 5.426-24.78 18.488c0 30.972 37.294 56.497 33.805 63.017s-32.037-19.535-60.8-19.535c-9.589 0-22.379 5.132-18.143 22.61 2.186 9.017 6.223 11.181 7.082 15.072 0.862 3.896-1.584 11.902 0.418 20.956 2.001 9.054 9.953 21.183 26.573 17.983 26.11-5.023 43.613-43.405 53.458-43.405 14.742 0 32.084 30.006 56.012 37.749 11.042 3.573 22.195-3.27 24.193-12.323 2.001-9.058-0.441-15.388 0.418-19.283s4.746-6.527 6.748-15.585c1.997-9.053 0.122-25.451-18.296-25.451z" fill="#4cae4f" stroke="#242628"/>
</g></svg>
